HIERARCHY
ROOT joint_0
{
	OFFSET 0.000000 0.000000 0.000000
	CHANNELS 6 Xposition Yposition Zposition Zrotation Yrotation Xrotation 
	JOINT joint_1
	{
		OFFSET 10.084412 4.114712 95.061035
		CHANNELS 3 Zrotation Yrotation Xrotation
		JOINT joint_2
		{
			OFFSET -1.615463 4.243484 87.329956
			CHANNELS 3 Zrotation Yrotation Xrotation
			JOINT joint_3
			{
				OFFSET -3.579636 4.638191 87.154053
				CHANNELS 3 Zrotation Yrotation Xrotation
				JOINT joint_4
				{
					OFFSET 5.443451 7.217075 123.562988
					CHANNELS 3 Zrotation Yrotation Xrotation
					JOINT joint_5
					{
						OFFSET 21.688065 15.141808 90.458008
						CHANNELS 3 Zrotation Yrotation Xrotation
						End Site
						{
							OFFSET 0.000000 0.000000 0.000000
						}
					}
				}
				JOINT joint_6
				{
					OFFSET 3.611374 -22.863556 70.791992
					CHANNELS 3 Zrotation Yrotation Xrotation
					JOINT joint_7
					{
						OFFSET 3.493607 -153.029137 -12.665039
						CHANNELS 3 Zrotation Yrotation Xrotation
						JOINT joint_8
						{
							OFFSET -14.929443 -32.628616 -254.032959
							CHANNELS 3 Zrotation Yrotation Xrotation
							JOINT joint_9
							{
								OFFSET 11.589401 -3.548126 -242.255005
								CHANNELS 3 Zrotation Yrotation Xrotation
								End Site
								{
									OFFSET 0.000000 0.000000 0.000000
								}
							}
						}
					}
				}
				JOINT joint_10
				{
					OFFSET 2.651962 30.943008 67.690918
					CHANNELS 3 Zrotation Yrotation Xrotation
					JOINT joint_11
					{
						OFFSET -6.172562 150.392159 -30.576904
						CHANNELS 3 Zrotation Yrotation Xrotation
						JOINT joint_12
						{
							OFFSET 15.363358 20.741959 -255.254028
							CHANNELS 3 Zrotation Yrotation Xrotation
							JOINT joint_13
							{
								OFFSET 23.282578 -11.086121 -241.182983
								CHANNELS 3 Zrotation Yrotation Xrotation
								End Site
								{
									OFFSET 0.000000 0.000000 0.000000
								}
							}
						}
					}
				}
			}
		}
	}
	JOINT joint_14
	{
		OFFSET -7.080551 -92.910816 -106.291992
		CHANNELS 3 Zrotation Yrotation Xrotation
		JOINT joint_15
		{
			OFFSET -38.248322 -6.001282 -411.906006
			CHANNELS 3 Zrotation Yrotation Xrotation
			JOINT joint_16
			{
				OFFSET -11.189407 -11.244659 -448.150986
				CHANNELS 3 Zrotation Yrotation Xrotation
				JOINT joint_17
				{
					OFFSET 169.870491 -24.631378 -80.352999
					CHANNELS 3 Zrotation Yrotation Xrotation
					End Site
					{
						OFFSET 0.000000 0.000000 0.000000
					}
				}
			}
		}
	}
	JOINT joint_18
	{
		OFFSET -2.796600 85.817772 -112.273987
		CHANNELS 3 Zrotation Yrotation Xrotation
		JOINT joint_19
		{
			OFFSET -44.395859 -8.174402 -411.255005
			CHANNELS 3 Zrotation Yrotation Xrotation
			JOINT joint_20
			{
				OFFSET -25.617508 -5.555587 -447.666992
				CHANNELS 3 Zrotation Yrotation Xrotation
				JOINT joint_21
				{
					OFFSET 163.870811 53.215703 -78.867000
					CHANNELS 3 Zrotation Yrotation Xrotation
					End Site
					{
						OFFSET 0.000000 0.000000 0.000000
					}
				}
			}
		}
	}
}
MOTION
Frames: 17
Frame Time: 0.016667
-400.128845 -90.735039 1080.927979 6.353580 4.496933 6.813647 -1.111663 -1.014220 2.051769 -1.648079 0.187378 -0.621450 -1.207153 -0.331969 0.404449 -2.526429 -1.698555 11.671357 0.000000 0.000000 0.000000 -3.233166 -10.857019 -1.640311 -8.837326 -6.990003 -26.880779 167.313447 -57.824913 -144.663822 0.000000 0.000000 0.000000 -0.090814 7.272928 4.733597 28.414148 -2.552640 17.743572 -159.867661 -52.830226 159.085546 0.000000 0.000000 0.000000 1.090324 -9.415433 -15.051985 -2.070446 10.392940 0.134622 -2.118683 3.849069 -0.389993 0.000000 0.000000 0.000000 -3.617540 -21.756070 14.782176 -3.780556 38.109857 -15.017992 -3.760305 7.490108 -4.362287 0.000000 0.000000 0.000000 
-395.370209 -84.907379 1079.301025 6.186777 4.465791 6.569354 -1.211676 -1.052833 2.236392 -1.702973 0.217489 -0.671236 -1.293296 -0.324473 0.472465 -2.540471 -1.540330 11.657677 0.000000 0.000000 0.000000 -3.269888 -11.934779 -1.684731 -12.188853 -8.330562 -26.933609 164.873194 -56.720250 -139.376677 0.000000 0.000000 0.000000 -0.018717 5.897795 4.817253 29.173090 -3.010092 18.437106 -159.133342 -52.388363 156.830711 0.000000 0.000000 0.000000 0.900562 -8.903724 -15.062679 -1.978290 10.062611 0.090606 -1.983846 3.595189 -0.366634 0.000000 0.000000 0.000000 -3.096746 -21.369192 14.293559 -3.070743 33.324845 -12.077097 -2.915323 8.062551 -4.122577 0.000000 0.000000 0.000000 
-390.408447 -78.589119 1076.670044 5.850277 4.531740 6.336391 -1.297839 -1.293653 2.350431 -1.796523 0.240978 -0.692085 -1.438880 -0.325198 0.523107 -2.562075 -1.255516 11.596914 0.000000 0.000000 0.000000 -3.350726 -12.805919 -1.681346 -14.292466 -9.411396 -26.841644 163.508866 -56.247918 -135.792079 0.000000 0.000000 0.000000 0.049204 4.297893 4.945376 30.083388 -3.605334 19.508932 -158.567094 -51.433023 154.246033 0.000000 0.000000 0.000000 0.753790 -8.385998 -15.085032 -1.858844 9.561587 -0.019095 -1.824725 3.084003 -0.370077 0.000000 0.000000 0.000000 -3.069183 -20.470309 13.631154 -2.926447 27.455895 -9.158123 -3.047481 8.484189 -4.256532 0.000000 0.000000 0.000000 
-385.634827 -71.366661 1073.349976 5.078321 4.556308 5.920568 -1.349549 -1.370658 2.767571 -1.808014 0.165438 -0.803659 -1.464704 -0.337071 0.558540 -2.560680 -0.986327 11.485047 0.000000 0.000000 0.000000 -3.377384 -13.473263 -1.681140 -15.779891 -10.412079 -26.722776 162.727636 -56.283777 -133.374857 0.000000 0.000000 0.000000 0.099007 2.763673 5.131436 29.642550 -3.889637 20.541223 -159.990226 -51.316181 153.994151 0.000000 0.000000 0.000000 0.771282 -7.887291 -15.012677 -1.638352 9.061552 -0.086333 -1.578524 2.486651 -0.345594 0.000000 0.000000 0.000000 -3.068738 -19.244129 13.106893 -2.951102 22.455540 -6.496167 -3.224770 9.188936 -4.541687 0.000000 0.000000 0.000000 
-381.329681 -62.862072 1069.296021 3.902847 4.598531 5.342074 -1.316220 -1.403386 3.446735 -1.743231 0.122762 -0.932674 -1.417603 -0.384303 0.592602 -2.516697 -0.832396 11.313329 0.000000 0.000000 0.000000 -3.235112 -13.764922 -1.771644 -16.677709 -11.324977 -26.631069 162.510151 -57.027948 -132.512604 0.000000 0.000000 0.000000 0.077922 2.137276 5.361917 24.741163 -2.984648 21.352850 -167.585463 -53.920732 162.073231 0.000000 0.000000 0.000000 0.994871 -7.531935 -14.991280 -1.346058 8.625599 0.060085 -1.269440 1.802648 -0.304876 0.000000 0.000000 0.000000 -2.793822 -18.432125 12.778649 -2.782996 20.594201 -4.616442 -3.051100 9.363148 -4.509545 0.000000 0.000000 0.000000 
-377.350861 -53.227455 1064.383057 2.493356 4.734149 4.755844 -1.226404 -1.602577 4.094927 -1.660702 0.191242 -0.970611 -1.397703 -0.465871 0.637893 -2.456455 -0.743063 11.096885 0.000000 0.000000 0.000000 -2.968553 -13.779773 -1.939325 -17.038392 -12.188075 -26.519809 162.799225 -58.470323 -132.939102 0.000000 0.000000 0.000000 -0.016664 2.379690 5.589168 13.500839 0.137081 22.404926 173.413823 -55.716556 -175.119503 0.000000 0.000000 0.000000 1.357803 -7.344002 -15.173035 -1.030464 8.192929 0.412805 -0.934138 0.955862 -0.276330 0.000000 0.000000 0.000000 -2.423498 -18.083738 12.409583 -2.538653 21.230745 -3.389569 -2.797721 8.462970 -4.085945 0.000000 0.000000 0.000000 
-373.557373 -42.958626 1059.751953 1.053953 4.868106 4.334177 -1.176551 -1.795656 4.533708 -1.594181 0.266179 -0.963123 -1.398109 -0.528870 0.670049 -2.397644 -0.688589 10.918014 0.000000 0.000000 0.000000 -2.759565 -13.767808 -1.983968 -16.990649 -13.137203 -26.457762 163.501126 -60.666960 -133.914756 0.000000 0.000000 0.000000 0.196009 -1.038288 5.949641 6.958071 3.943144 23.317455 152.661389 -52.720965 -156.213933 0.000000 0.000000 0.000000 1.782929 -7.338777 -15.597009 -0.674808 7.998302 0.739828 -0.551186 0.194680 -0.214106 0.000000 0.000000 0.000000 -1.895008 -17.533825 11.879117 -2.018038 21.919288 -2.637329 -2.236756 7.009559 -3.339605 0.000000 0.000000 0.000000 
-369.785583 -32.253887 1055.958984 -0.327333 4.948624 4.233575 -1.235512 -1.908831 4.583511 -1.601297 0.299402 -0.828411 -1.346870 -0.548170 0.578636 -2.384480 -0.641838 10.703524 0.000000 0.000000 0.000000 -2.745085 -13.818040 -1.760369 -16.704808 -14.414191 -26.456825 164.676046 -63.632860 -134.966221 0.000000 0.000000 0.000000 3.523062 -42.763262 6.905608 -4.232191 43.175933 21.814254 -50.661235 30.244013 144.829879 0.000000 0.000000 0.000000 2.223651 -7.545479 -16.301344 -0.256394 8.234683 0.819980 -0.093783 -0.439774 -0.100758 0.000000 0.000000 0.000000 -1.112845 -16.180850 11.064966 -1.020077 20.857970 -2.315426 -1.110094 5.062590 -2.177970 0.000000 0.000000 0.000000 
-366.084808 -20.924070 1052.556030 -1.768817 5.002727 4.350928 -1.294329 -1.969837 4.383936 -1.532363 0.289081 -0.967260 -1.385452 -0.509091 0.702163 -2.301687 -0.604321 10.921030 0.000000 0.000000 0.000000 -2.921828 -14.204438 -1.214092 -15.749728 -15.519912 -26.854080 165.985002 -67.243338 -136.422121 0.000000 0.000000 0.000000 -0.111232 -3.471878 6.053963 16.220859 -5.202319 23.276959 -28.611865 48.730660 173.095593 0.000000 0.000000 0.000000 2.715315 -7.956329 -17.214182 0.234491 8.803561 0.719197 0.444945 -1.013858 0.056365 0.000000 0.000000 0.000000 -0.107420 -14.212013 10.044628 0.323923 18.841185 -2.543183 0.359349 2.529125 -0.675863 0.000000 0.000000 0.000000 
-362.800995 -9.540788 1050.505981 -3.010676 5.110194 4.478965 -1.451319 -1.993221 4.245997 -1.569661 0.248186 -1.018253 -1.428967 -0.477960 0.704989 -2.243590 -0.584810 10.960659 0.000000 0.000000 0.000000 -3.113505 -14.558004 -0.654151 -14.698624 -16.746031 -26.991090 167.798142 -71.364074 -138.313514 0.000000 0.000000 0.000000 0.661872 -15.170311 6.200362 35.879582 -9.700697 22.427079 19.868471 27.578226 -125.254390 0.000000 0.000000 0.000000 3.242808 -8.560777 -18.186590 0.753032 9.528531 0.668991 1.005831 -0.991405 0.308447 0.000000 0.000000 0.000000 0.759099 -12.444568 9.030039 1.465069 16.778952 -2.876306 1.555785 0.603976 0.497982 0.000000 0.000000 0.000000 
-360.179657 1.585098 1050.577026 -3.759461 5.374399 4.598714 -1.743151 -2.093227 4.177085 -1.746500 0.211901 -1.016997 -1.617370 -0.476884 0.669100 -2.160509 -0.580758 10.877721 0.000000 0.000000 0.000000 -3.314374 -15.011969 -0.105731 -13.462933 -17.861458 -26.771840 170.051138 -75.989316 -140.794784 0.000000 0.000000 0.000000 0.769363 -20.245033 6.151857 39.820467 -10.963227 21.414675 32.746345 -3.232241 -112.981775 0.000000 0.000000 0.000000 3.840905 -9.304295 -19.315147 1.319746 10.206797 0.879101 1.606156 0.112316 0.734938 0.000000 0.000000 0.000000 1.261590 -11.542489 8.012944 2.117929 15.331637 -2.904844 2.238258 0.024794 0.998805 0.000000 0.000000 0.000000 
-358.090790 12.680040 1052.390991 -4.111122 5.762791 4.805268 -2.163963 -2.259473 4.023455 -2.039906 0.173670 -0.967684 -1.923428 -0.492440 0.625779 -2.081649 -0.587816 10.748095 0.000000 0.000000 0.000000 -3.579861 -15.650543 0.534310 -12.100267 -18.951030 -26.321256 172.587927 -80.950263 -143.690327 0.000000 0.000000 0.000000 0.716737 -23.934610 5.944850 43.013118 -12.450647 19.252137 39.604051 -34.203779 -109.215485 0.000000 0.000000 0.000000 4.529977 -10.156247 -20.688578 1.987249 10.873364 1.282943 2.311557 2.125969 1.342738 0.000000 0.000000 0.000000 1.541675 -11.182285 6.901270 2.503892 14.178836 -2.795139 2.654886 0.329524 1.091741 0.000000 0.000000 0.000000 
-356.455231 23.389971 1055.453979 -4.447320 6.090523 4.894651 -2.570752 -2.208743 4.036905 -2.333880 0.124676 -0.990947 -2.219689 -0.483728 0.637684 -2.004005 -0.684965 10.679020 0.000000 0.000000 0.000000 -3.696772 -16.246074 0.999898 -10.839310 -19.787957 -25.677186 175.071823 -85.523612 -146.995011 0.000000 0.000000 0.000000 0.693230 -26.784608 5.536993 43.554245 -12.976103 17.485284 41.279339 -50.551807 -106.945861 0.000000 0.000000 0.000000 5.115020 -11.331880 -21.873598 2.546355 11.979934 1.767141 2.923625 4.375752 1.949069 0.000000 0.000000 0.000000 1.686202 -10.993940 6.021910 2.752618 13.334360 -2.717293 2.922791 0.991490 1.001591 0.000000 0.000000 0.000000 
-355.358795 33.572048 1059.817017 -5.044412 6.205062 4.699981 -2.831713 -1.647986 4.438457 -2.559477 0.053248 -1.152797 -2.442096 -0.418787 0.736978 -1.907537 -0.972512 10.731508 0.000000 0.000000 0.000000 -3.448657 -16.606037 0.988542 -9.832478 -20.164507 -24.732268 177.349244 -89.238059 -150.861930 0.000000 0.000000 0.000000 0.738827 -28.361749 5.089460 41.818397 -12.969425 16.020251 39.515269 -56.588109 -102.194804 0.000000 0.000000 0.000000 5.398115 -13.139806 -22.515482 2.769984 14.021820 2.188706 3.206097 6.568110 2.409886 0.000000 0.000000 0.000000 1.720869 -10.792272 5.646088 2.913593 12.943549 -2.808152 3.084228 1.708214 0.845110 0.000000 0.000000 0.000000 
-354.830505 43.372173 1065.666016 -5.721810 6.142225 4.348517 -2.973091 -0.630014 5.029684 -2.777858 -0.053864 -1.355615 -2.666747 -0.321140 0.894870 -1.785906 -1.421466 10.857464 0.000000 0.000000 0.000000 -2.940095 -16.871397 0.594489 -8.985245 -20.179236 -23.468026 -0.537719 -87.599743 24.819900 0.000000 0.000000 0.000000 0.786052 -28.959998 4.733159 39.281549 -12.994974 14.251377 36.587834 -59.401615 -95.820818 0.000000 0.000000 0.000000 5.387664 -15.458045 -22.776192 2.722229 16.785419 2.478880 3.173907 9.091811 2.796722 0.000000 0.000000 0.000000 1.606045 -10.679093 5.600877 2.940042 12.989989 -3.002047 3.105407 2.668263 0.544340 0.000000 0.000000 0.000000 
-354.269226 52.314529 1071.353027 -6.343425 6.037041 3.993479 -3.026310 0.403572 5.466802 -2.979488 -0.191318 -1.493395 -2.894716 -0.220170 1.030677 -1.677670 -1.796269 10.954809 0.000000 0.000000 0.000000 -2.501367 -17.246603 0.210402 -8.205278 -20.155728 -22.390304 1.167327 -84.532919 21.066650 0.000000 0.000000 0.000000 0.698400 -29.123399 4.510201 36.260415 -13.284637 12.706373 33.177369 -58.558383 -88.956349 0.000000 0.000000 0.000000 5.205812 -17.734636 -22.795999 2.582682 19.507046 2.660829 2.975018 11.435906 3.097605 0.000000 0.000000 0.000000 1.446612 -10.500957 5.605106 2.904788 12.965482 -3.150488 3.061614 3.684169 0.194634 0.000000 0.000000 0.000000 
-353.251190 59.992706 1075.833008 -6.895861 6.040854 3.659191 -3.039040 1.044441 5.614792 -3.112344 -0.314968 -1.524535 -3.067516 -0.118623 1.072429 -1.615545 -1.930827 10.942093 0.000000 0.000000 0.000000 -2.368736 -17.788934 0.120925 -7.435458 -20.291590 -21.888620 2.352414 -81.186362 18.587614 0.000000 0.000000 0.000000 0.406525 -29.429211 4.426957 33.650282 -13.837465 11.755237 30.036665 -54.188817 -83.407523 0.000000 0.000000 0.000000 4.955926 -19.744001 -22.602906 2.427425 21.856309 2.831901 2.698978 13.151916 3.274313 0.000000 0.000000 0.000000 1.311379 -10.181288 5.556531 2.859884 12.497048 -3.145684 3.006345 4.633368 -0.138482 0.000000 0.000000 0.000000 
